<svg id="Layer_1" data-name="Layer 1" xmlns="http://www.w3.org/2000/svg" viewBox="0 0 199.46 360"><defs><style>.cls-1{fill:#fff;stroke:#231f20;stroke-miterlimit:10;}.cls-2{fill:#231f20;}</style></defs><polygon id="_001" data-name="001" class="cls-1" points="73.58 331.5 85.58 332.5 83.58 342.5 72.58 342.5 73.58 331.5"/><circle id="c001" class="cls-2" cx="79.01" cy="337.85" r="1.94"/><polygon id="_002" data-name="002" class="cls-1" points="2.58 346.5 15.58 347.5 12.58 359.5 0.58 359.5 2.58 346.5"/><circle id="c002" class="cls-2" cx="7.6" cy="353.67" r="1.94"/><path id="_003" data-name="003" class="cls-1" d="M161.5,558.5l59,36S130.5,646.5,161.5,558.5Z" transform="translate(-113.92 -350)"/><circle id="c003" class="cls-2" cx="65.12" cy="240.94" r="1.94"/><polygon id="_004" data-name="004" class="cls-1" points="150.58 83.5 148.58 138.5 161.58 138.5 162.58 83.5 150.58 83.5"/><circle id="c004" class="cls-2" cx="155.66" cy="112.84" r="1.94"/><polygon id="_005" data-name="005" class="cls-1" points="189.58 156.5 180.58 168.5 188.58 171.5 198.58 158.5 189.58 156.5"/><circle id="c005" class="cls-2" cx="189.66" cy="163.84" r="1.94"/><rect id="_006" data-name="006" class="cls-1" x="96.58" y="0.5" width="14" height="62"/><circle id="c006" class="cls-2" cx="103.66" cy="32.77" r="1.94"/></svg>