<svg xmlns="http://www.w3.org/2000/svg" viewBox="0 0 779.29 1262.58"><defs><style>.cls-1{fill:#c9baa7;}.cls-2{fill:#507444;}.cls-3{fill:#070707;}</style></defs><g id="volumes"><path id="volume_low" class="cls-1" d="M802,673.22l-55.43,2.12a10.07,10.07,0,0,1-5.47-1.38L651.28,621a10,10,0,0,1-4.21-4.9l-37-92.4a10,10,0,0,1-.5-5.84l22.6-104.47a10,10,0,0,1,3-5.21l84.47-78.67A10,10,0,0,1,725,327l63.63-9.06a10,10,0,0,1,11.42,9.86L802,675.45" transform="translate(-22.66 -21.75)"/><path id="volume_high" class="cls-1" d="M250.71,330.55l99.84,5a10.45,10.45,0,0,0,9.29-4.74L460.77,175.52a10.46,10.46,0,0,0,.67-10.19L412.1,61.71a10.49,10.49,0,0,0-7.75-5.82L318.41,41.8a10.83,10.83,0,0,0-2.2-.12l-92.09,4.48a10.47,10.47,0,0,0-8.6,5.32l-55.75,99.28a10.43,10.43,0,0,0-.23,9.8L241.89,324.8A10.42,10.42,0,0,0,250.71,330.55Z" transform="translate(-22.66 -21.75)"/></g><g id="feet_holds"><path id="f01" class="cls-2" d="M86.34,1271.11c3.26-.49,11.74-.85,10.63,8.82a.37.37,0,0,1-.1.22c-.75.78-6,6-9.36,3.52s-4.8-7.55-3.09-11.19A2.51,2.51,0,0,1,86.34,1271.11Z" transform="translate(-22.66 -21.75)"/><circle id="cf01" class="cls-3" cx="66.56" cy="1260.16" r="2.32"/><path id="f02" class="cls-2" d="M375.85,1234.19a3.46,3.46,0,0,1,2.55-1.92c4.07-.72,14.25-1.46,10.5,10.21C384.52,1256.08,371.9,1242.87,375.85,1234.19Z" transform="translate(-22.66 -21.75)"/><circle id="cf02" class="cls-3" cx="361.1" cy="1218.92" r="2.32"/><path id="f03" class="cls-2" d="M181.26,1184a.42.42,0,0,1,.25,0c1.46.18,14.64,2,8.2,10.83-6.81,9.31-12,.27-12,0S176.53,1186.87,181.26,1184Z" transform="translate(-22.66 -21.75)"/><circle id="cf03" class="cls-3" cx="160.66" cy="1175" r="2.32"/><path id="f04" class="cls-2" d="M429,1093.36l.07,0c.49-.19,6-2.31,7.47-1.38s7.23,14.32,0,16.68-13.34-9.59-13.34-10.56S428.57,1093.66,429,1093.36Z" transform="translate(-22.66 -21.75)"/><circle id="cf04" class="cls-3" cx="411.14" cy="1082.71" r="2.32"/><path id="f05" class="cls-2" d="M28.83,1093.06c1.18-.1,17.28-1.14,6.63,12.47l-.07.07c-.68.53-10.28,7.7-12.73-6.19a.45.45,0,0,1,0-.23,14,14,0,0,1,6-6.09A.32.32,0,0,1,28.83,1093.06Z" transform="translate(-22.66 -21.75)"/><circle id="cf05" class="cls-3" cx="6.93" cy="1081.32" r="2.32"/><path id="f06" class="cls-2" d="M377,953.36a3.56,3.56,0,0,1,3.16-2.79,10.45,10.45,0,0,1,7,1.55c3.89,2.78,1.39,12.23-4.73,12.79C377,965.39,375.7,959.05,377,953.36Z" transform="translate(-22.66 -21.75)"/><circle id="cf06" class="cls-3" cx="359.71" cy="938.71" r="2.32"/><path id="f07" class="cls-2" d="M589,816.27c3.45,1.93,8.78,3,11-6.6a.36.36,0,0,0,0-.29c-1-1.53-10.52-15.57-13.6,1.13A5.45,5.45,0,0,0,589,816.27Z" transform="translate(-22.66 -21.75)"/><circle id="cf07" class="cls-3" cx="570.42" cy="790.54" r="2.32"/><path id="f08" class="cls-2" d="M217.38,756.53c-3.55,2.17-3.64,7.47.06,9.37a4.39,4.39,0,0,0,2,.52h7.88a5.1,5.1,0,0,0,4.85-3.55c1-3.11,1.21-7.28-4.39-8.12A15.23,15.23,0,0,0,217.38,756.53Z" transform="translate(-22.66 -21.75)"/><circle id="cf08" class="cls-3" cx="201.53" cy="739.66" r="2.32"/><path id="f09" class="cls-2" d="M428,703.94s4.89-5.46,12.43-.72a2.31,2.31,0,0,1,1.08,2c0,2.51-.72,7.93-5.45,8.67-4.27.67-8.19-2.6-10.19-4.68a2.27,2.27,0,0,1,0-3.15A28,28,0,0,1,428,703.94Z" transform="translate(-22.66 -21.75)"/><circle id="cf09" class="cls-3" cx="412.25" cy="688.23" r="2.32"/><path id="f10" class="cls-2" d="M730,564.67s-5.56-6.12,3.89-8.06A150.92,150.92,0,0,1,750,554.1s4.73-4.17,2.51,9.18S736.9,571.62,730,564.67Z" transform="translate(-22.66 -21.75)"/><circle id="cf10" class="cls-3" cx="716.19" cy="542.91" r="2.32"/><path id="f11" class="cls-2" d="M720.11,498.72c5.24-1.25,13.14-5.4,9.52-19.11a5.26,5.26,0,0,0-5.53-3.9c-7.74.65-22.32,4-10.38,20.67A6.1,6.1,0,0,0,720.11,498.72Z" transform="translate(-22.66 -21.75)"/><circle id="cf11" class="cls-3" cx="693.3" cy="463.55" r="2.32"/><path id="f12" class="cls-2" d="M767.94,436.93s23.07,5.28,20-17.24S754.59,422.75,767.94,436.93Z" transform="translate(-22.66 -21.75)"/><circle id="cf12" class="cls-3" cx="754.18" cy="399.61" r="2.32"/><path class="cls-2" d="M700.73,384.43c5-.79,14.53-3.62,18.58-13.77a1.64,1.64,0,0,0-.94-2.15c-5.5-2-24-7.33-21.29,13.19A3.19,3.19,0,0,0,700.73,384.43Z" transform="translate(-22.66 -21.75)"/><circle id="cf13" class="cls-3" cx="680.23" cy="349.01" r="2.32"/></g><g id="hand_holds"><path id="_01" data-name="01" class="cls-2" d="M202.69,1038.51s-.19-7.23,9.08-6.12,16.31-9.45,43.37,21.13c0,0,14.45,14.27-3,26.31s-39.48-15.38-49.48-40.21" transform="translate(-22.66 -21.75)"/><circle id="c01" class="cls-3" cx="205.98" cy="1040.47" r="2.32"/><path id="_02" data-name="02" class="cls-2" d="M369,900.44l3,.3a2.83,2.83,0,0,0,1.29-.18,18.62,18.62,0,0,1,13.87.25c7.41,3.33,14.52,12.41,12.91,16.12s-27.41,15.84-34.06-13.07A2.81,2.81,0,0,1,369,900.44Z" transform="translate(-22.66 -21.75)"/><circle id="c02" class="cls-3" cx="360.08" cy="892.03" r="2.32"/><path id="_03" data-name="03" class="cls-2" d="M192.53,927.19c2.16-1.25,19.06-12.16-.35-38.54a3.55,3.55,0,0,0-3.37-1.43,7.38,7.38,0,0,0-3.17,1.17c-2,1.47-31.48,1.12-37.32,28.54a3.44,3.44,0,0,0,0,1.24c.36,2.4,2.44,10.49,14.39,12.85,13.12,2.59,27.53-2.87,29.44-3.63A3.36,3.36,0,0,0,192.53,927.19Z" transform="translate(-22.66 -21.75)"/><circle id="c03" class="cls-3" cx="151.49" cy="897.03" r="2.32"/><path id="_04" data-name="04" class="cls-2" d="M348.73,787.76s4.44-11.31,15-4.45c0,0,13.31-2.23,18.79-.19s37.36,13.16,34,26.51-5.69,18.71-33.8,21.68S345.44,792.33,348.73,787.76Z" transform="translate(-22.66 -21.75)"/><circle id="c04" class="cls-3" cx="359.88" cy="794.64" r="2.32"/><path id="_05" data-name="05" class="cls-2" d="M306.94,717.26c-.18-5.65.57-26,20.66-27.73,0,0,17.42.38,23.35,7.05S351.14,716,350,717s-17.42,21.87-38,15.75c0,0-9.07-4.73-5.62-12.77A6.35,6.35,0,0,0,306.94,717.26Z" transform="translate(-22.66 -21.75)"/><circle id="c05" class="cls-3" cx="306.61" cy="692.22" r="2.32"/><path id="_06" data-name="06" class="cls-2" d="M471.23,588.53s22.61-24.28,45,10c0,0,9.82,31.69-25.94,27.61,0,0-25.95-6.3-27.06-30.39C463.26,595.76,465.85,587.6,471.23,588.53Z" transform="translate(-22.66 -21.75)"/><circle id="c06" class="cls-3" cx="468.96" cy="586.42" r="2.32"/><path id="_07" data-name="07" class="cls-2" d="M375.78,469.55s33.55,7.23,30.77,30.95-29.28,25.41-30.77,24.38-12.41,1-16.12-7.89-5.37-30.57,0-34.46S373.76,469,375.78,469.55Z" transform="translate(-22.66 -21.75)"/><circle id="c07" class="cls-3" cx="359.8" cy="478.74" r="2.32"/><path id="_08" data-name="08" class="cls-2" d="M477,367.88a7.7,7.7,0,0,1,1.92-2.93c6.09-6.1,24.43-20.23,40.53,10.45,19.65,37.44-18,35-18,35s-22.45-1-33.05-28.44a7.15,7.15,0,0,1-.28-4.52,4.43,4.43,0,0,1,2.82-3.16,8.08,8.08,0,0,0,3.57-2.68A17,17,0,0,0,477,367.88Z" transform="translate(-22.66 -21.75)"/><circle id="c08" class="cls-3" cx="473.41" cy="364.77" r="2.32"/><path class="cls-2" d="M328.34,291.82s38.6,4,35.07,33.73a4.25,4.25,0,0,1-.18.86c-.59,1.89-3.43,8.69-14,9.33-12.23.74-36.51-2.41-38.36-17.05-1.35-10.65.93-24.53,5.05-30.45a4.78,4.78,0,0,1,7.36-.51C325,289.49,327.29,291.67,328.34,291.82Z" transform="translate(-22.66 -21.75)"/><circle id="c09" class="cls-3" cx="314.95" cy="300.64" r="2.32"/><path id="_10" data-name="10" class="cls-2" d="M391.65,173.85c7.91-.18,36.32,1.52,21.23,36.67a4.4,4.4,0,0,1-.53.92l-4.26,5.85a4.62,4.62,0,0,1-5.33,1.61c-5.08-1.84-14.44-6.63-18.27-17.71-5-14.53-6.15-24.05-1.16-27.37a4.34,4.34,0,0,1,2.3-.67,11.6,11.6,0,0,1,3.17.28A9.5,9.5,0,0,0,391.65,173.85Z" transform="translate(-22.66 -21.75)"/><circle id="c10" class="cls-3" cx="383.52" cy="170.14" r="2.32"/><path id="_11" data-name="11" class="cls-2" d="M352.62,160.05a113.63,113.63,0,0,1-7.32,11.31c-3.8,5-21.62-.93-24-21.69,0,0-5.94-10.93,0-15.2s8.91-2.78,11.32-5.18c0,0,35.59-5.38,20,30.76" transform="translate(-22.66 -21.75)"/><circle id="c11" class="cls-3" cx="322.64" cy="121.71" r="2.32"/><path id="_12" data-name="12" class="cls-2" d="M287,41.37a1.65,1.65,0,0,1-.87-3c7.8-5.07,24-15,31.61-14.69C328,24,329.27,22,329.27,22s2.78-2,10.75,6.12A76.82,76.82,0,0,1,352.8,46.44s-32.43-5.19-35.49-4.81C315,41.9,296.34,41.56,287,41.37Z" transform="translate(-22.66 -21.75)"/><circle id="c12" class="cls-3" cx="301.47" cy="5.42" r="2.32"/></g></svg>